<?xml version="1.0" standalone="no"?>
<!DOCTYPE svg PUBLIC "-//W3C//DTD SVG 20010904//EN"
 "http://www.w3.org/TR/2001/REC-SVG-20010904/DTD/svg10.dtd">
<svg version="1.0" xmlns="http://www.w3.org/2000/svg"
 width="200.000000pt" height="200.000000pt" viewBox="0 0 200.000000 200.000000"
 preserveAspectRatio="xMidYMid meet">

<g transform="translate(0.000000,200.000000) scale(0.100000,-0.100000)"
fill="#000000" stroke="none">
<path d="M960 1482 l0 -72 -100 0 -100 0 0 -168 0 -168 70 -69 70 -69 0 172 0
172 100 0 100 0 0 -103 0 -103 70 -69 70 -69 0 169 0 170 -140 140 -140 140 0
-73z"/>
<path d="M420 735 l0 -125 28 0 c15 0 44 -3 64 -6 32 -6 41 -2 68 24 64 64 25
168 -61 160 l-39 -4 0 38 c0 36 -2 38 -30 38 l-30 0 0 -125z m128 -31 c5 -55
-51 -71 -64 -18 -8 30 12 56 40 52 15 -2 22 -11 24 -34z"/>
<path d="M661 766 c-27 -29 -36 -83 -19 -116 20 -37 55 -50 121 -43 l57 6 0
88 0 88 -69 0 c-59 0 -71 -3 -90 -23z m94 -65 c0 -41 -25 -62 -49 -42 -33 27
-12 85 29 79 16 -2 20 -11 20 -37z"/>
<path d="M850 766 c0 -21 5 -25 37 -28 l38 -3 -38 -41 c-20 -23 -37 -51 -37
-63 0 -20 5 -21 75 -21 73 0 75 1 75 25 0 22 -4 25 -36 25 l-36 0 36 40 c21
24 36 50 36 65 0 24 -2 25 -75 25 -73 0 -75 -1 -75 -24z"/>
<path d="M1044 758 c-21 -27 -25 -39 -21 -71 9 -69 37 -84 145 -79 l42 2 0 89
0 90 -70 0 c-65 0 -70 -2 -96 -31z m102 -43 c3 -14 4 -32 0 -40 -14 -39 -66
-23 -66 19 0 47 55 64 66 21z"/>
<path d="M1264 765 c-36 -36 -33 -97 6 -137 27 -26 36 -30 68 -24 20 3 49 6
65 6 l27 0 0 89 0 90 -71 0 c-62 0 -74 -3 -95 -24z m96 -40 c27 -33 -15 -90
-46 -64 -14 12 -19 60 -7 72 11 12 40 8 53 -8z"/>
<path d="M1466 783 c-3 -4 -6 -44 -6 -90 l0 -83 30 0 c29 0 30 1 30 48 0 54 6
67 38 76 14 5 22 15 22 30 0 21 -4 23 -54 24 -30 0 -57 -2 -60 -5z"/>
</g>
</svg>
